<svg xmlns="http://www.w3.org/2000/svg" viewBox="0 0 1489.1 194.35"><defs><style>.cls-1{fill:#003087;}.cls-2{fill:#fff;}</style></defs><g id="Camada_2" data-name="Camada 2"><g id="Camada_1-2" data-name="Camada 1"><path class="cls-1" d="M915.53,0c25.33,0,41.91,16.54,41.91,41.81V152.54c0,25.3-16.58,41.81-41.91,41.81H41.91C16.58,194.35,0,177.84,0,152.54V41.81C0,16.54,16.58,0,41.91,0ZM418.6,102.33a45.39,45.39,0,1,0,45.57-45.56,45.13,45.13,0,0,0-45.57,45.56m-49.85,36.36,19.74-51.91,7.06,52.77c.61,4.6,3.91,6.43,7.93,6.43H413.6L399.94,58.35H384.59L361.81,117.9,339,58.35H323.55L309.9,146h16.57l7.91-60.16,17.91,46.55c1.72,4.25,4.27,6.32,8.53,6.32ZM212.52,86.3c0-17.27-12.06-27.95-28.74-27.95H154.41v80.94c0,4.63,2.06,6.69,6.71,6.69h9.74V113.64h11.33l14,27.36c1.82,3.65,4.26,5,8.4,5h13.17l-20.11-35.49A26.12,26.12,0,0,0,212.52,86.3M716.05,58.35v80.94c0,4.63,2.07,6.69,6.68,6.69H732V85.09l38.16,54.81c3,4.38,6,6.08,10.47,6.08H790V58.35H774v62l-42.4-62Zm-195.48,0v80.94c0,4.63,2.07,6.69,6.72,6.69h9.26V85.09l38.14,54.81c3,4.38,6,6.08,10.47,6.08h9.39V58.35h-16v62l-42.4-62ZM285.39,140c1.46,4,3.91,6,7.92,6h11.83L271.26,58.35h-16.7L220.93,146h17.18l6.82-19.32h35.58Zm578.47,0c1.47,4,3.89,6,7.9,6H883.6L849.73,58.35H833L799.38,146h17.19l6.84-19.32H859ZM436.38,102.23c0-15.8,12.29-28.82,27.54-28.82s27.66,13,27.66,28.82-12.42,28.67-27.66,28.67S436.38,118,436.38,102.23M629.27,74v65.27c0,4.63,2.07,6.69,6.72,6.69h10.6V74h24.25V58.35H605v9c0,4.6,2.07,6.67,6.7,6.67ZM102.36,74v65.27c0,4.63,2.08,6.69,6.72,6.69h10.6V74h24.25V58.35H78.11v9c0,4.6,2.07,6.67,6.71,6.67Zm597-15.67H682.05v80.94c0,4.63,2.07,6.69,6.69,6.69h10.6ZM170.86,73.41h11.46c6.2,0,13.27,2.91,13.27,12.76,0,9.62-7.07,12.54-13.27,12.54H170.86Zm670.33,3.77,12.3,34.17H828.88Zm-578.47,0L275,111.35H250.43Z"/><path class="cls-2" d="M418.6,102.33a45.39,45.39,0,1,0,45.57-45.56,45.13,45.13,0,0,0-45.57,45.56m-49.85,36.36,19.74-51.91,7.06,52.77c.61,4.6,3.91,6.43,7.93,6.43H413.6L399.94,58.35H384.59L361.81,117.9,339,58.35H323.55L309.9,146h16.57l7.91-60.16,17.91,46.55c1.72,4.25,4.27,6.32,8.53,6.32ZM212.52,86.3c0-17.27-12.06-27.95-28.74-27.95H154.41v80.94c0,4.63,2.06,6.69,6.71,6.69h9.74V113.64h11.33l14,27.36c1.82,3.65,4.26,5,8.4,5h13.17l-20.11-35.49A26.12,26.12,0,0,0,212.52,86.3M716.05,58.35v80.94c0,4.63,2.07,6.69,6.68,6.69H732V85.09l38.16,54.81c3,4.38,6,6.08,10.47,6.08H790V58.35H774v62l-42.4-62Zm-195.48,0v80.94c0,4.63,2.07,6.69,6.72,6.69h9.26V85.09l38.14,54.81c3,4.38,6,6.08,10.47,6.08h9.39V58.35h-16v62l-42.4-62ZM285.39,140c1.46,4,3.91,6,7.92,6h11.83L271.26,58.35h-16.7L220.93,146h17.18l6.82-19.32h35.58Zm578.47,0c1.47,4,3.89,6,7.9,6H883.6L849.73,58.35H833L799.38,146h17.19l6.84-19.32H859ZM436.38,102.23c0-15.8,12.29-28.82,27.54-28.82s27.66,13,27.66,28.82-12.42,28.67-27.66,28.67S436.38,118,436.38,102.23M629.27,74v65.27c0,4.63,2.07,6.69,6.72,6.69h10.6V74h24.25V58.35H605v9c0,4.6,2.07,6.67,6.7,6.67ZM102.36,74v65.27c0,4.63,2.08,6.69,6.72,6.69h10.6V74h24.25V58.35H78.11v9c0,4.6,2.07,6.67,6.71,6.67Zm597-15.67H682.05v80.94c0,4.63,2.07,6.69,6.69,6.69h10.6ZM170.86,73.41h11.46c6.2,0,13.27,2.91,13.27,12.76,0,9.62-7.07,12.54-13.27,12.54H170.86Zm670.33,3.77,12.3,34.17H828.88Zm-578.47,0L275,111.35H250.43Z"/><path class="cls-1" d="M1029.51,91.15V45.55h4.38q.48,4.62.54,7.26a13.67,13.67,0,0,1,4.89-5.79,13,13,0,0,1,7.29-2.07,13.44,13.44,0,0,1,7.23,2.07,14.61,14.61,0,0,1,5.31,6,19.9,19.9,0,0,1,2,9.12,20,20,0,0,1-2,9.21,14.69,14.69,0,0,1-5.46,6,14.43,14.43,0,0,1-7.65,2.1,12,12,0,0,1-6.63-1.8,12.92,12.92,0,0,1-4.47-5V91.15ZM1052.85,71a13.58,13.58,0,0,0,2.76-8.85,13.63,13.63,0,0,0-2.67-8.79,8.84,8.84,0,0,0-7.29-3.33,10.3,10.3,0,0,0-5.64,1.56,10.2,10.2,0,0,0-3.78,4.32,14.14,14.14,0,0,0-1.32,6.18,13.76,13.76,0,0,0,1.41,6.24,11.17,11.17,0,0,0,3.87,4.44,9.62,9.62,0,0,0,5.4,1.62A8.91,8.91,0,0,0,1052.85,71Z"/><path class="cls-1" d="M1072.23,78.25a9,9,0,0,1-3.69-3.36,9.13,9.13,0,0,1-1.32-4.86,7.92,7.92,0,0,1,2.52-6,13.77,13.77,0,0,1,7.44-3.15q4.56-.72,6.75-1.26a9.06,9.06,0,0,0,3.45-1.53,3.34,3.34,0,0,0,1.26-2.79,4.4,4.4,0,0,0-2-3.9q-1.95-1.32-6.21-1.32a29.69,29.69,0,0,0-5.43.57,40.25,40.25,0,0,0-5.79,1.53v-5.1a30.74,30.74,0,0,1,5.49-1.53,32.24,32.24,0,0,1,6-.57q13.38,0,13.38,10.68V71a3,3,0,0,0,3.48,3.42,10.27,10.27,0,0,0,2.34-.24v4.32a8.77,8.77,0,0,1-4.38,1A7.15,7.15,0,0,1,1091,78q-1.89-1.5-2.19-5.16a10.74,10.74,0,0,1-4.62,5,13.67,13.67,0,0,1-6.6,1.62A11.59,11.59,0,0,1,1072.23,78.25Zm11.28-5.07a9.53,9.53,0,0,0,3.78-3.51,10,10,0,0,0,1.41-5.34V62.77a13.19,13.19,0,0,1-3.48,1.29q-2.28.57-6.78,1.29-5.7,1-5.7,4.68a3.84,3.84,0,0,0,1.53,3.18,6.48,6.48,0,0,0,4.11,1.2A11,11,0,0,0,1083.51,73.18Z"/><path class="cls-1" d="M1107.69,78.85v-28l-4.68-.78v-4.5h8.64q.54,3.72.9,10a15,15,0,0,1,3.51-7.62,8.86,8.86,0,0,1,6.87-2.94,9.45,9.45,0,0,1,2.88.42V51a16.76,16.76,0,0,0-2.88-.3,8.48,8.48,0,0,0-7.2,3.57q-2.64,3.57-2.64,10.35V78.85Z"/><path class="cls-1" d="M1138.38,77.41a15,15,0,0,1-6.06-5.91,18.08,18.08,0,0,1-2.22-9.15,18.21,18.21,0,0,1,2.22-9.06,15.62,15.62,0,0,1,6.18-6.15,18.41,18.41,0,0,1,9.06-2.19,25.87,25.87,0,0,1,8.22,1.38v5.1a25.36,25.36,0,0,0-8-1.38,11.86,11.86,0,0,0-8.82,3.33,12.1,12.1,0,0,0-3.3,8.91q0,5.7,3.33,8.88a12,12,0,0,0,8.61,3.18,21.69,21.69,0,0,0,4.71-.54,15.65,15.65,0,0,0,4.17-1.5v5.1a21.53,21.53,0,0,1-9.42,2A18.13,18.13,0,0,1,1138.38,77.41Z"/><path class="cls-1" d="M1170.69,77.44a15.3,15.3,0,0,1-6.24-6,18.56,18.56,0,0,1-2.34-9.6,18.43,18.43,0,0,1,2.07-8.88,14.93,14.93,0,0,1,13.41-8,14.56,14.56,0,0,1,7.35,1.8,12.1,12.1,0,0,1,4.83,5,15.8,15.8,0,0,1,1.68,7.38q0,1.5-.18,3.6h-23.64q.36,5.82,3.78,8.7a12.51,12.51,0,0,0,8.34,2.88,22,22,0,0,0,5.76-.78,17.76,17.76,0,0,0,5.16-2.28v5.22a16.26,16.26,0,0,1-5,2.16,25.09,25.09,0,0,1-6.39.78A18.45,18.45,0,0,1,1170.69,77.44ZM1185.75,58v-.12a7.3,7.3,0,0,0-2.37-5.61,8.54,8.54,0,0,0-6-2.19,8.8,8.8,0,0,0-5.91,2.13,10.75,10.75,0,0,0-3.39,5.79Z"/><path class="cls-1" d="M1201.44,78.85v-28l-4.68-.78v-4.5h8.64q.54,3.72.9,10a15,15,0,0,1,3.51-7.62,8.86,8.86,0,0,1,6.87-2.94,9.45,9.45,0,0,1,2.88.42V51a16.76,16.76,0,0,0-2.88-.3,8.48,8.48,0,0,0-7.2,3.57q-2.64,3.57-2.64,10.35V78.85Z"/><path class="cls-1" d="M1228.11,38.11a3.73,3.73,0,0,1,0-5.25,3.74,3.74,0,0,1,6.36,2.61,3.73,3.73,0,0,1-6.36,2.64Zm1.74,39.24a8.2,8.2,0,0,1-1.86-5.64V45.55h5.4V71.11q0,3.48,3.18,3.48a9.06,9.06,0,0,0,2.64-.42v4.38a9,9,0,0,1-4.08.9A6.68,6.68,0,0,1,1229.85,77.35Z"/><path class="cls-1" d="M1249.71,78.25a9,9,0,0,1-3.69-3.36A9.13,9.13,0,0,1,1244.7,70a7.92,7.92,0,0,1,2.52-6,13.77,13.77,0,0,1,7.44-3.15q4.56-.72,6.75-1.26a9.06,9.06,0,0,0,3.45-1.53,3.34,3.34,0,0,0,1.26-2.79,4.4,4.4,0,0,0-1.95-3.9q-2-1.32-6.21-1.32a29.69,29.69,0,0,0-5.43.57,40.25,40.25,0,0,0-5.79,1.53v-5.1a30.74,30.74,0,0,1,5.49-1.53,32.24,32.24,0,0,1,6-.57q13.38,0,13.38,10.68V71a3,3,0,0,0,3.48,3.42,10.27,10.27,0,0,0,2.34-.24v4.32a8.77,8.77,0,0,1-4.38,1,7.15,7.15,0,0,1-4.59-1.5q-1.89-1.5-2.19-5.16a10.74,10.74,0,0,1-4.62,5,13.67,13.67,0,0,1-6.6,1.62A11.59,11.59,0,0,1,1249.71,78.25ZM1261,73.18a9.53,9.53,0,0,0,3.78-3.51,10,10,0,0,0,1.41-5.34V62.77a13.19,13.19,0,0,1-3.48,1.29q-2.28.57-6.78,1.29-5.7,1-5.7,4.68a3.84,3.84,0,0,0,1.53,3.18,6.48,6.48,0,0,0,4.11,1.2A11,11,0,0,0,1261,73.18Z"/><path class="cls-1" d="M1297.79,91.15V45.55h4.39q.46,4.62.53,7.26a13.62,13.62,0,0,1,4.9-5.79A13,13,0,0,1,1314.9,45a13.41,13.41,0,0,1,7.22,2.07,14.56,14.56,0,0,1,5.32,6,20,20,0,0,1,2,9.12,20.1,20.1,0,0,1-2,9.21,14.83,14.83,0,0,1-5.46,6,14.49,14.49,0,0,1-7.66,2.1,12,12,0,0,1-6.63-1.8,12.9,12.9,0,0,1-4.46-5V91.15ZM1321.14,71a13.63,13.63,0,0,0,2.76-8.85,13.69,13.69,0,0,0-2.67-8.79,8.85,8.85,0,0,0-7.29-3.33,10.31,10.31,0,0,0-5.65,1.56,10.11,10.11,0,0,0-3.77,4.32,14,14,0,0,0-1.32,6.18,13.63,13.63,0,0,0,1.41,6.24,11,11,0,0,0,3.87,4.44,9.59,9.59,0,0,0,5.39,1.62A8.94,8.94,0,0,0,1321.14,71Z"/><path class="cls-1" d="M1340.51,78.25a8.88,8.88,0,0,1-3.68-3.36A9.05,9.05,0,0,1,1335.5,70a7.92,7.92,0,0,1,2.52-6,13.77,13.77,0,0,1,7.44-3.15q4.56-.72,6.75-1.26a9,9,0,0,0,3.45-1.53,3.34,3.34,0,0,0,1.26-2.79,4.4,4.4,0,0,0-2-3.9q-2-1.32-6.21-1.32a29.69,29.69,0,0,0-5.43.57,40.25,40.25,0,0,0-5.79,1.53v-5.1a30.74,30.74,0,0,1,5.49-1.53,32.24,32.24,0,0,1,6-.57q13.38,0,13.38,10.68V71a3,3,0,0,0,3.49,3.42,10.24,10.24,0,0,0,2.33-.24v4.32a8.76,8.76,0,0,1-4.37,1,7.12,7.12,0,0,1-4.59-1.5q-1.9-1.5-2.2-5.16a10.74,10.74,0,0,1-4.62,5,13.66,13.66,0,0,1-6.59,1.62A11.6,11.6,0,0,1,1340.51,78.25Zm11.28-5.07a9.62,9.62,0,0,0,3.79-3.51,10,10,0,0,0,1.41-5.34V62.77a13.42,13.42,0,0,1-3.49,1.29q-2.28.57-6.78,1.29-5.7,1-5.7,4.68a3.84,3.84,0,0,0,1.53,3.18,6.5,6.5,0,0,0,4.11,1.2A11,11,0,0,0,1351.79,73.18Z"/><path class="cls-1" d="M1376,78.85v-28l-4.68-.78v-4.5h8.64q.54,3.72.9,10a15,15,0,0,1,3.51-7.62,8.86,8.86,0,0,1,6.87-2.94,9.45,9.45,0,0,1,2.88.42V51a16.76,16.76,0,0,0-2.88-.3,8.48,8.48,0,0,0-7.2,3.57q-2.64,3.57-2.64,10.35V78.85Z"/><path class="cls-1" d="M1402.79,78.25a8.88,8.88,0,0,1-3.68-3.36,9.05,9.05,0,0,1-1.33-4.86,7.92,7.92,0,0,1,2.52-6,13.81,13.81,0,0,1,7.44-3.15q4.56-.72,6.75-1.26a9.11,9.11,0,0,0,3.46-1.53,3.36,3.36,0,0,0,1.25-2.79,4.4,4.4,0,0,0-2-3.9q-1.95-1.32-6.21-1.32a29.59,29.59,0,0,0-5.42.57,39.57,39.57,0,0,0-5.79,1.53v-5.1a30.27,30.27,0,0,1,5.49-1.53,32.14,32.14,0,0,1,6-.57q13.38,0,13.38,10.68V71a3,3,0,0,0,3.49,3.42,10.39,10.39,0,0,0,2.34-.24v4.32a8.77,8.77,0,0,1-4.38,1,7.13,7.13,0,0,1-4.59-1.5q-1.9-1.5-2.19-5.16a10.8,10.8,0,0,1-4.63,5,13.66,13.66,0,0,1-6.59,1.62A11.6,11.6,0,0,1,1402.79,78.25Zm11.29-5.07a9.6,9.6,0,0,0,3.78-3.51,10,10,0,0,0,1.41-5.34V62.77a13.42,13.42,0,0,1-3.49,1.29q-2.28.57-6.78,1.29-5.7,1-5.7,4.68a3.87,3.87,0,0,0,1.53,3.18,6.51,6.51,0,0,0,4.12,1.2A11,11,0,0,0,1414.08,73.18Z"/><path class="cls-1" d="M1032.57,158.05v-28.2l-6.66-.6v-4.5h6.66v-3.36a10.66,10.66,0,0,1,2.7-7.5q2.7-2.94,7.86-2.94a29.34,29.34,0,0,1,3.84.27,22.24,22.24,0,0,1,3.6.75v5.16a25.19,25.19,0,0,0-6.72-1,6.49,6.49,0,0,0-4.47,1.29,4.91,4.91,0,0,0-1.41,3.81v3.54h12.6v5.1H1038v28.2Z"/><path class="cls-1" d="M1059.15,157.45a9,9,0,0,1-3.69-3.36,9.13,9.13,0,0,1-1.32-4.86,7.92,7.92,0,0,1,2.52-6,13.77,13.77,0,0,1,7.44-3.15q4.56-.72,6.75-1.26a9.06,9.06,0,0,0,3.45-1.53,3.34,3.34,0,0,0,1.26-2.79,4.4,4.4,0,0,0-2-3.9q-2-1.32-6.21-1.32a29.69,29.69,0,0,0-5.43.57,40.25,40.25,0,0,0-5.79,1.53v-5.1a30.74,30.74,0,0,1,5.49-1.53,32.24,32.24,0,0,1,6-.57q13.38,0,13.38,10.68v15.36a3,3,0,0,0,3.48,3.42,10.27,10.27,0,0,0,2.34-.24v4.32a8.77,8.77,0,0,1-4.38,1,7.15,7.15,0,0,1-4.59-1.5q-1.89-1.5-2.19-5.16a10.74,10.74,0,0,1-4.62,5,13.67,13.67,0,0,1-6.6,1.62A11.59,11.59,0,0,1,1059.15,157.45Zm11.28-5.07a9.53,9.53,0,0,0,3.78-3.51,10,10,0,0,0,1.41-5.34V142a13.19,13.19,0,0,1-3.48,1.29q-2.28.57-6.78,1.29-5.7,1-5.7,4.68a3.84,3.84,0,0,0,1.53,3.18,6.48,6.48,0,0,0,4.11,1.2A11,11,0,0,0,1070.43,152.38Z"/><path class="cls-1" d="M1119,158.05h-26.88v-3.9l19.14-24.3h-18.48v-5.1H1119v3.9L1099.89,153H1119Z"/><path class="cls-1" d="M1133,156.64a15.3,15.3,0,0,1-6.24-6,20.48,20.48,0,0,1-.27-18.48,14.93,14.93,0,0,1,13.41-8,14.56,14.56,0,0,1,7.35,1.8,12.1,12.1,0,0,1,4.83,5,15.8,15.8,0,0,1,1.68,7.38q0,1.5-.18,3.6h-23.64q.36,5.82,3.78,8.7a12.51,12.51,0,0,0,8.34,2.88,22,22,0,0,0,5.76-.78,17.76,17.76,0,0,0,5.16-2.28v5.22a16.26,16.26,0,0,1-5,2.16,25.09,25.09,0,0,1-6.39.78A18.45,18.45,0,0,1,1133,156.64ZM1148,137.17v-.12a7.3,7.3,0,0,0-2.37-5.61,8.54,8.54,0,0,0-6-2.19,8.8,8.8,0,0,0-5.91,2.13,10.75,10.75,0,0,0-3.39,5.79Z"/><path class="cls-1" d="M1163.73,158.05V130l-4.68-.78v-4.5h8.64q.54,3.72.9,10a15,15,0,0,1,3.51-7.62,8.86,8.86,0,0,1,6.87-2.94,9.45,9.45,0,0,1,2.88.42v5.58a16.76,16.76,0,0,0-2.88-.3,8.48,8.48,0,0,0-7.2,3.57q-2.64,3.57-2.64,10.35v14.28Z"/><path class="cls-1" d="M1213.2,156.73a13,13,0,0,1-4.47-5.34q-.18,3.18-.72,6.66h-4.5v-46.5h5.4v19.56a13.28,13.28,0,0,1,4.83-5.13,13,13,0,0,1,6.87-1.83,13.44,13.44,0,0,1,7.23,2.07,14.61,14.61,0,0,1,5.31,6,22,22,0,0,1,0,18.33,14.69,14.69,0,0,1-5.46,6,14.43,14.43,0,0,1-7.65,2.1A11.9,11.9,0,0,1,1213.2,156.73Zm13.65-6.57a15.68,15.68,0,0,0,.09-17.64,8.84,8.84,0,0,0-7.29-3.33,10.3,10.3,0,0,0-5.64,1.56,10.2,10.2,0,0,0-3.78,4.32,14.14,14.14,0,0,0-1.32,6.18,13.76,13.76,0,0,0,1.41,6.24,11.17,11.17,0,0,0,3.87,4.44,9.62,9.62,0,0,0,5.4,1.62A8.91,8.91,0,0,0,1226.85,150.16Z"/><path class="cls-1" d="M1249.56,156.64a15.24,15.24,0,0,1-6.24-6,20.48,20.48,0,0,1-.27-18.48,14.93,14.93,0,0,1,13.41-8,14.58,14.58,0,0,1,7.35,1.8,12.1,12.1,0,0,1,4.83,5,15.92,15.92,0,0,1,1.68,7.38q0,1.5-.18,3.6H1246.5q.36,5.82,3.78,8.7a12.51,12.51,0,0,0,8.34,2.88,22,22,0,0,0,5.76-.78,17.76,17.76,0,0,0,5.16-2.28v5.22a16.26,16.26,0,0,1-5,2.16,25.09,25.09,0,0,1-6.39.78A18.45,18.45,0,0,1,1249.56,156.64Zm15.06-19.47v-.12a7.3,7.3,0,0,0-2.37-5.61,8.55,8.55,0,0,0-6-2.19,8.78,8.78,0,0,0-5.91,2.13,10.75,10.75,0,0,0-3.39,5.79Z"/><path class="cls-1" d="M1280.3,158.05V130l-4.68-.72v-4.5h8.76a62.73,62.73,0,0,1,1,7.62,11,11,0,0,1,4-6,11.28,11.28,0,0,1,7-2.19,10,10,0,0,1,6.8,2.34,11.31,11.31,0,0,1,3.57,6,11,11,0,0,1,4.08-6.12,11.48,11.48,0,0,1,7-2.22,10.15,10.15,0,0,1,5.94,1.71,10.65,10.65,0,0,1,3.7,4.44,14.23,14.23,0,0,1,1.22,5.85v21.9h-5.4V137.47a8.71,8.71,0,0,0-1.85-5.94,6.57,6.57,0,0,0-5.17-2.1,8.49,8.49,0,0,0-6.54,2.73q-2.51,2.73-2.51,8v17.94h-5.41V137.29a8.36,8.36,0,0,0-1.86-5.79,6.58,6.58,0,0,0-5.16-2.07,8.51,8.51,0,0,0-6.54,2.73q-2.52,2.73-2.52,8v17.94Z"/><path class="cls-1" d="M1354.58,158.05v-28.2l-6.66-.6v-4.5h6.66v-3.36a10.66,10.66,0,0,1,2.7-7.5q2.7-2.94,7.86-2.94a29.34,29.34,0,0,1,3.84.27,22.24,22.24,0,0,1,3.6.75v5.16a25.19,25.19,0,0,0-6.72-1,6.49,6.49,0,0,0-4.47,1.29,4.91,4.91,0,0,0-1.41,3.81v3.54h12.6v5.1H1360v28.2Z"/><path class="cls-1" d="M1384.43,156.64a15.3,15.3,0,0,1-6.24-6,20.48,20.48,0,0,1-.27-18.48,14.93,14.93,0,0,1,13.41-8,14.56,14.56,0,0,1,7.35,1.8,12.1,12.1,0,0,1,4.83,5,15.8,15.8,0,0,1,1.68,7.38q0,1.5-.18,3.6h-23.64q.36,5.82,3.78,8.7a12.51,12.51,0,0,0,8.34,2.88,22,22,0,0,0,5.76-.78,17.76,17.76,0,0,0,5.16-2.28v5.22a16.26,16.26,0,0,1-5,2.16,25.09,25.09,0,0,1-6.39.78A18.45,18.45,0,0,1,1384.43,156.64Zm15.06-19.47v-.12a7.3,7.3,0,0,0-2.37-5.61,8.54,8.54,0,0,0-6-2.19,8.8,8.8,0,0,0-5.91,2.13,10.75,10.75,0,0,0-3.39,5.79Z"/><path class="cls-1" d="M1413.5,117.31a3.73,3.73,0,0,1,0-5.25,3.74,3.74,0,0,1,6.36,2.61,3.73,3.73,0,0,1-6.36,2.64Zm1.74,39.24a8.2,8.2,0,0,1-1.86-5.64V124.75h5.4v25.56q0,3.48,3.18,3.48a9.06,9.06,0,0,0,2.64-.42v4.38a9,9,0,0,1-4.08.9A6.68,6.68,0,0,1,1415.24,156.55Z"/><path class="cls-1" d="M1437.53,155.86q-3.12-2.79-3.12-8.85V129.55l-6.6-.72v-4.08q4.2,0,6-1.83t1.8-6.27h4.2v8.1h11.94v5.1h-11.94v17q0,6.72,6.36,6.72a17,17,0,0,0,5.58-.78v4.5a13.72,13.72,0,0,1-6.42,1.38A11.27,11.27,0,0,1,1437.53,155.86Z"/><path class="cls-1" d="M1464.5,156.61a14.14,14.14,0,0,1-5.7-5.91,19.36,19.36,0,0,1-2-9.15A18.78,18.78,0,0,1,1459,132a14.87,14.87,0,0,1,6-5.88,16.82,16.82,0,0,1,7.92-1.95,17.36,17.36,0,0,1,8,1.86,14.27,14.27,0,0,1,5.91,5.73,20.78,20.78,0,0,1,.06,18.69,15.54,15.54,0,0,1-5.88,6.09,16,16,0,0,1-8.13,2.13A17,17,0,0,1,1464.5,156.61Zm13.83-4.53a10.26,10.26,0,0,0,3.84-4.23,14.07,14.07,0,0,0,1.41-6.48,13.77,13.77,0,0,0-1.5-6.66,10,10,0,0,0-4-4.11,10.8,10.8,0,0,0-5.28-1.35,10.28,10.28,0,0,0-5.25,1.41,10.12,10.12,0,0,0-3.87,4.11,13.6,13.6,0,0,0-1.44,6.48,14.79,14.79,0,0,0,1.35,6.51,9.86,9.86,0,0,0,9.21,5.79A10.4,10.4,0,0,0,1478.33,152.08Z"/></g></g></svg>