<svg xmlns="http://www.w3.org/2000/svg" viewBox="0 0 957.44 310.58"><defs><style>.cls-1{fill:#fff;}</style></defs><g id="Camada_2" data-name="Camada 2"><g id="Camada_1-2" data-name="Camada 1"><path d="M915.53,0c25.33,0,41.91,16.54,41.91,41.81V152.54c0,25.3-16.58,41.81-41.91,41.81H41.91C16.58,194.35,0,177.84,0,152.54V41.81C0,16.54,16.58,0,41.91,0ZM418.6,102.33a45.39,45.39,0,1,0,45.57-45.56,45.13,45.13,0,0,0-45.57,45.56m-49.85,36.36,19.74-51.91,7.06,52.77c.61,4.6,3.91,6.43,7.93,6.43H413.6L399.94,58.35H384.59L361.81,117.9,339,58.35H323.55L309.9,146h16.57l7.91-60.16,17.91,46.55c1.72,4.25,4.27,6.32,8.53,6.32ZM212.52,86.3c0-17.27-12.06-27.95-28.74-27.95H154.41v80.94c0,4.63,2.06,6.69,6.71,6.69h9.74V113.64h11.33l14,27.36c1.82,3.65,4.26,5,8.4,5h13.17l-20.11-35.49A26.12,26.12,0,0,0,212.52,86.3M716.05,58.35v80.94c0,4.63,2.07,6.69,6.68,6.69H732V85.09l38.16,54.81c3,4.38,6,6.08,10.47,6.08H790V58.35H774v62l-42.4-62Zm-195.48,0v80.94c0,4.63,2.07,6.69,6.72,6.69h9.26V85.09l38.14,54.81c3,4.38,6,6.08,10.47,6.08h9.39V58.35h-16v62l-42.4-62ZM285.39,140c1.46,4,3.91,6,7.92,6h11.83L271.26,58.35h-16.7L220.93,146h17.18l6.82-19.32h35.58Zm578.47,0c1.47,4,3.89,6,7.9,6H883.6L849.73,58.35H833L799.38,146h17.19l6.84-19.32H859ZM436.38,102.23c0-15.8,12.29-28.82,27.54-28.82s27.66,13,27.66,28.82-12.42,28.67-27.66,28.67S436.38,118,436.38,102.23M629.27,74v65.27c0,4.63,2.07,6.69,6.72,6.69h10.6V74h24.25V58.35H605v9c0,4.6,2.07,6.67,6.7,6.67ZM102.36,74v65.27c0,4.63,2.08,6.69,6.72,6.69h10.6V74h24.25V58.35H78.11v9c0,4.6,2.07,6.67,6.71,6.67Zm597-15.67H682.05v80.94c0,4.63,2.07,6.69,6.69,6.69h10.6ZM170.86,73.41h11.46c6.2,0,13.27,2.91,13.27,12.76,0,9.62-7.07,12.54-13.27,12.54H170.86Zm670.33,3.77,12.3,34.17H828.88Zm-578.47,0L275,111.35H250.43Z"/><path class="cls-1" d="M418.6,102.33a45.39,45.39,0,1,0,45.57-45.56,45.13,45.13,0,0,0-45.57,45.56m-49.85,36.36,19.74-51.91,7.06,52.77c.61,4.6,3.91,6.43,7.93,6.43H413.6L399.94,58.35H384.59L361.81,117.9,339,58.35H323.55L309.9,146h16.57l7.91-60.16,17.91,46.55c1.72,4.25,4.27,6.32,8.53,6.32ZM212.52,86.3c0-17.27-12.06-27.95-28.74-27.95H154.41v80.94c0,4.63,2.06,6.69,6.71,6.69h9.74V113.64h11.33l14,27.36c1.82,3.65,4.26,5,8.4,5h13.17l-20.11-35.49A26.12,26.12,0,0,0,212.52,86.3M716.05,58.35v80.94c0,4.63,2.07,6.69,6.68,6.69H732V85.09l38.16,54.81c3,4.38,6,6.08,10.47,6.08H790V58.35H774v62l-42.4-62Zm-195.48,0v80.94c0,4.63,2.07,6.69,6.72,6.69h9.26V85.09l38.14,54.81c3,4.38,6,6.08,10.47,6.08h9.39V58.35h-16v62l-42.4-62ZM285.39,140c1.46,4,3.91,6,7.92,6h11.83L271.26,58.35h-16.7L220.93,146h17.18l6.82-19.32h35.58Zm578.47,0c1.47,4,3.89,6,7.9,6H883.6L849.73,58.35H833L799.38,146h17.19l6.84-19.32H859ZM436.38,102.23c0-15.8,12.29-28.82,27.54-28.82s27.66,13,27.66,28.82-12.42,28.67-27.66,28.67S436.38,118,436.38,102.23M629.27,74v65.27c0,4.63,2.07,6.69,6.72,6.69h10.6V74h24.25V58.35H605v9c0,4.6,2.07,6.67,6.7,6.67ZM102.36,74v65.27c0,4.63,2.08,6.69,6.72,6.69h10.6V74h24.25V58.35H78.11v9c0,4.6,2.07,6.67,6.71,6.67Zm597-15.67H682.05v80.94c0,4.63,2.07,6.69,6.69,6.69h10.6ZM170.86,73.41h11.46c6.2,0,13.27,2.91,13.27,12.76,0,9.62-7.07,12.54-13.27,12.54H170.86Zm670.33,3.77,12.3,34.17H828.88Zm-578.47,0L275,111.35H250.43Z"/><path d="M103.56,310.58V271.2h3.78c.28,2.66.43,4.75.47,6.27a11.81,11.81,0,0,1,4.22-5,11.21,11.21,0,0,1,6.3-1.79,11.63,11.63,0,0,1,6.24,1.79,12.58,12.58,0,0,1,4.59,5.16,19,19,0,0,1,0,15.83,12.77,12.77,0,0,1-4.71,5.21,12.56,12.56,0,0,1-6.61,1.81,10.33,10.33,0,0,1-5.73-1.56,11.14,11.14,0,0,1-3.86-4.35v16Zm20.16-17.43a13.55,13.55,0,0,0,.07-15.24A7.6,7.6,0,0,0,117.5,275a8.72,8.72,0,0,0-8.14,5.07,12.23,12.23,0,0,0-1.14,5.34,11.9,11.9,0,0,0,1.22,5.39,9.62,9.62,0,0,0,3.34,3.84,8.33,8.33,0,0,0,4.67,1.39A7.69,7.69,0,0,0,123.72,293.15Z"/><path d="M140.45,299.44a7.79,7.79,0,0,1-3.19-2.9,8,8,0,0,1-1.13-4.2,6.82,6.82,0,0,1,2.17-5.2,11.78,11.78,0,0,1,6.43-2.72c2.62-.42,4.57-.78,5.83-1.09a7.85,7.85,0,0,0,3-1.32,2.91,2.91,0,0,0,1.08-2.41,3.81,3.81,0,0,0-1.68-3.37q-1.68-1.14-5.36-1.14a25.36,25.36,0,0,0-4.69.49,35.2,35.2,0,0,0-5,1.32v-4.4a25.82,25.82,0,0,1,4.74-1.32,27.63,27.63,0,0,1,5.15-.5q11.57,0,11.56,9.23v13.26a2.58,2.58,0,0,0,3,3,8.83,8.83,0,0,0,2-.21v3.73a7.63,7.63,0,0,1-3.79.83,6.15,6.15,0,0,1-4-1.3c-1.09-.86-1.72-2.35-1.89-4.45a9.22,9.22,0,0,1-4,4.35,11.85,11.85,0,0,1-5.7,1.4A10.06,10.06,0,0,1,140.45,299.44Zm9.74-4.38a8.09,8.09,0,0,0,3.27-3,8.6,8.6,0,0,0,1.22-4.61v-1.35a11.45,11.45,0,0,1-3,1.12q-2,.49-5.85,1.11c-3.29.56-4.93,1.9-4.93,4a3.32,3.32,0,0,0,1.32,2.75,5.63,5.63,0,0,0,3.55,1A9.44,9.44,0,0,0,150.19,295.06Z"/><path d="M171.08,300v-24.2l-4-.67V271.2h7.46q.47,3.21.77,8.6a13,13,0,0,1,3-6.58,7.64,7.64,0,0,1,5.93-2.54,8.23,8.23,0,0,1,2.49.37v4.82a13.85,13.85,0,0,0-2.49-.26,7.3,7.3,0,0,0-6.22,3.08q-2.28,3.07-2.28,8.94V300Z"/><path d="M197.58,298.72a13,13,0,0,1-5.23-5.11,17,17,0,0,1,0-15.72,13.63,13.63,0,0,1,5.33-5.32,16,16,0,0,1,7.83-1.89,22.24,22.24,0,0,1,7.1,1.2v4.4a22.06,22.06,0,0,0-6.94-1.19,10.27,10.27,0,0,0-7.62,2.87,10.47,10.47,0,0,0-2.85,7.7,10.13,10.13,0,0,0,2.87,7.67,10.34,10.34,0,0,0,7.44,2.74,18.82,18.82,0,0,0,4.07-.46,13.19,13.19,0,0,0,3.6-1.3v4.41a18.67,18.67,0,0,1-8.14,1.76A15.71,15.71,0,0,1,197.58,298.72Z"/><path d="M225.49,298.74a13.08,13.08,0,0,1-5.39-5.15,17.73,17.73,0,0,1-.24-16,12.93,12.93,0,0,1,11.59-6.95,12.52,12.52,0,0,1,6.34,1.56,10.35,10.35,0,0,1,4.17,4.35,13.62,13.62,0,0,1,1.46,6.37c0,.87-.06,1.9-.16,3.11H222.84q.32,5,3.27,7.52a10.79,10.79,0,0,0,7.2,2.48,19,19,0,0,0,5-.67,15.22,15.22,0,0,0,4.45-2v4.51a13.84,13.84,0,0,1-4.32,1.87,22.09,22.09,0,0,1-5.52.67A15.87,15.87,0,0,1,225.49,298.74Zm13-16.81v-.11a6.31,6.31,0,0,0-2-4.84,7.39,7.39,0,0,0-5.21-1.89,7.6,7.6,0,0,0-5.11,1.84,9.21,9.21,0,0,0-2.92,5Z"/><path d="M252,300v-24.2l-4-.67V271.2h7.46q.47,3.21.78,8.6a12.94,12.94,0,0,1,3-6.58,7.68,7.68,0,0,1,5.94-2.54,8.21,8.21,0,0,1,2.48.37v4.82a13.75,13.75,0,0,0-2.48-.26,7.3,7.3,0,0,0-6.22,3.08q-2.28,3.07-2.28,8.94V300Z"/><path d="M275.08,264.78a3.21,3.21,0,0,1,0-4.54,3.15,3.15,0,0,1,4.53,0,3.2,3.2,0,0,1,0,4.54,3.13,3.13,0,0,1-2.28.93A3.1,3.1,0,0,1,275.08,264.78Zm1.5,33.89a7.11,7.11,0,0,1-1.61-4.88V271.2h4.67v22.08c0,2,.91,3,2.74,3a7.83,7.83,0,0,0,2.28-.36v3.78a7.72,7.72,0,0,1-3.52.78A5.8,5.8,0,0,1,276.58,298.67Z"/><path d="M293.73,299.44a7.73,7.73,0,0,1-3.19-2.9,7.88,7.88,0,0,1-1.14-4.2,6.83,6.83,0,0,1,2.18-5.2,11.77,11.77,0,0,1,6.42-2.72q3.94-.63,5.83-1.09a7.71,7.71,0,0,0,3-1.32,2.89,2.89,0,0,0,1.09-2.41,3.81,3.81,0,0,0-1.68-3.37q-1.68-1.14-5.37-1.14a25.34,25.34,0,0,0-4.68.49,35.34,35.34,0,0,0-5,1.32v-4.4a26.16,26.16,0,0,1,4.75-1.32,27.63,27.63,0,0,1,5.15-.5q11.55,0,11.56,9.23v13.26a2.57,2.57,0,0,0,3,3,8.71,8.71,0,0,0,2-.21v3.73a7.56,7.56,0,0,1-3.78.83,6.13,6.13,0,0,1-4-1.3c-1.09-.86-1.72-2.35-1.89-4.45a9.32,9.32,0,0,1-4,4.35,11.85,11.85,0,0,1-5.7,1.4A10,10,0,0,1,293.73,299.44Zm9.74-4.38a8.15,8.15,0,0,0,3.27-3,8.59,8.59,0,0,0,1.21-4.61v-1.35a11.22,11.22,0,0,1-3,1.12c-1.31.33-3.27.7-5.86,1.11-3.28.56-4.92,1.9-4.92,4a3.32,3.32,0,0,0,1.32,2.75,5.61,5.61,0,0,0,3.55,1A9.44,9.44,0,0,0,303.47,295.06Z"/><path d="M335.26,310.58V271.2H339c.28,2.66.43,4.75.47,6.27a11.81,11.81,0,0,1,4.22-5,11.23,11.23,0,0,1,6.3-1.79,11.61,11.61,0,0,1,6.24,1.79,12.58,12.58,0,0,1,4.59,5.16,19,19,0,0,1,0,15.83,12.7,12.7,0,0,1-4.71,5.21,12.56,12.56,0,0,1-6.61,1.81,10.33,10.33,0,0,1-5.73-1.56,11.14,11.14,0,0,1-3.86-4.35v16Zm20.16-17.43a13.58,13.58,0,0,0,.08-15.24,7.63,7.63,0,0,0-6.3-2.87,8.72,8.72,0,0,0-8.14,5.07,12.23,12.23,0,0,0-1.14,5.34,11.9,11.9,0,0,0,1.22,5.39,9.7,9.7,0,0,0,3.34,3.84,8.33,8.33,0,0,0,4.67,1.39A7.69,7.69,0,0,0,355.42,293.15Z"/><path d="M372.16,299.44a7.73,7.73,0,0,1-3.19-2.9,7.88,7.88,0,0,1-1.14-4.2,6.8,6.8,0,0,1,2.18-5.2,11.77,11.77,0,0,1,6.42-2.72q3.94-.63,5.83-1.09a7.85,7.85,0,0,0,3-1.32,2.89,2.89,0,0,0,1.09-2.41,3.79,3.79,0,0,0-1.69-3.37q-1.68-1.14-5.36-1.14a25.53,25.53,0,0,0-4.69.49,35.56,35.56,0,0,0-5,1.32v-4.4a26.27,26.27,0,0,1,4.74-1.32,27.74,27.74,0,0,1,5.16-.5q11.55,0,11.55,9.23v13.26a2.58,2.58,0,0,0,3,3,8.77,8.77,0,0,0,2-.21v3.73a7.61,7.61,0,0,1-3.78.83,6.15,6.15,0,0,1-4-1.3c-1.09-.86-1.72-2.35-1.89-4.45a9.22,9.22,0,0,1-4,4.35,11.85,11.85,0,0,1-5.7,1.4A10,10,0,0,1,372.16,299.44Zm9.74-4.38a8.12,8.12,0,0,0,3.26-3,8.6,8.6,0,0,0,1.22-4.61v-1.35a11.17,11.17,0,0,1-3,1.12q-2,.49-5.85,1.11c-3.28.56-4.92,1.9-4.92,4a3.32,3.32,0,0,0,1.32,2.75,5.6,5.6,0,0,0,3.55,1A9.47,9.47,0,0,0,381.9,295.06Z"/><path d="M402.78,300v-24.2l-4-.67V271.2h7.46q.46,3.21.78,8.6a12.94,12.94,0,0,1,3-6.58,7.66,7.66,0,0,1,5.93-2.54,8.23,8.23,0,0,1,2.49.37v4.82a13.85,13.85,0,0,0-2.49-.26,7.32,7.32,0,0,0-6.22,3.08q-2.28,3.07-2.28,8.94V300Z"/><path d="M425.94,299.44a7.71,7.71,0,0,1-3.18-2.9,7.88,7.88,0,0,1-1.14-4.2,6.82,6.82,0,0,1,2.17-5.2,11.78,11.78,0,0,1,6.43-2.72c2.62-.42,4.57-.78,5.83-1.09a7.85,7.85,0,0,0,3-1.32,2.91,2.91,0,0,0,1.08-2.41,3.81,3.81,0,0,0-1.68-3.37q-1.68-1.14-5.36-1.14a25.36,25.36,0,0,0-4.69.49,35.2,35.2,0,0,0-5,1.32v-4.4a25.82,25.82,0,0,1,4.74-1.32,27.63,27.63,0,0,1,5.15-.5q11.57,0,11.56,9.23v13.26a2.58,2.58,0,0,0,3,3,8.77,8.77,0,0,0,2-.21v3.73a7.63,7.63,0,0,1-3.79.83,6.15,6.15,0,0,1-4-1.3c-1.09-.86-1.72-2.35-1.89-4.45a9.22,9.22,0,0,1-4,4.35,11.85,11.85,0,0,1-5.7,1.4A10.06,10.06,0,0,1,425.94,299.44Zm9.74-4.38a8.09,8.09,0,0,0,3.27-3,8.6,8.6,0,0,0,1.22-4.61v-1.35a11.45,11.45,0,0,1-3,1.12q-2,.49-5.85,1.11c-3.29.56-4.93,1.9-4.93,4a3.32,3.32,0,0,0,1.32,2.75,5.63,5.63,0,0,0,3.55,1A9.44,9.44,0,0,0,435.68,295.06Z"/><path d="M470.12,300V275.61l-5.75-.52V271.2h5.75v-2.9a9.21,9.21,0,0,1,2.33-6.48c1.55-1.69,3.82-2.54,6.79-2.54a24.56,24.56,0,0,1,3.31.24,19.28,19.28,0,0,1,3.11.64v4.46a21.64,21.64,0,0,0-5.8-.88,5.61,5.61,0,0,0-3.86,1.11,4.26,4.26,0,0,0-1.22,3.29v3.06h10.88v4.41H474.78V300Z"/><path d="M493.07,299.44a7.79,7.79,0,0,1-3.19-2.9,7.88,7.88,0,0,1-1.14-4.2,6.83,6.83,0,0,1,2.18-5.2,11.78,11.78,0,0,1,6.43-2.72q3.93-.63,5.83-1.09a7.85,7.85,0,0,0,3-1.32,2.91,2.91,0,0,0,1.08-2.41,3.81,3.81,0,0,0-1.68-3.37q-1.68-1.14-5.36-1.14a25.36,25.36,0,0,0-4.69.49,34.85,34.85,0,0,0-5,1.32v-4.4a25.82,25.82,0,0,1,4.74-1.32,27.63,27.63,0,0,1,5.15-.5q11.57,0,11.56,9.23v13.26a2.57,2.57,0,0,0,3,3,8.86,8.86,0,0,0,2-.21v3.73a7.63,7.63,0,0,1-3.79.83,6.15,6.15,0,0,1-4-1.3c-1.09-.86-1.72-2.35-1.89-4.45a9.32,9.32,0,0,1-4,4.35,11.85,11.85,0,0,1-5.7,1.4A10,10,0,0,1,493.07,299.44Zm9.74-4.38a8.09,8.09,0,0,0,3.27-3,8.59,8.59,0,0,0,1.21-4.61v-1.35a11.22,11.22,0,0,1-3,1.12q-2,.49-5.86,1.11c-3.28.56-4.92,1.9-4.92,4a3.32,3.32,0,0,0,1.32,2.75,5.61,5.61,0,0,0,3.55,1A9.44,9.44,0,0,0,502.81,295.06Z"/><path d="M544.73,300H521.52v-3.37l16.53-21h-16V271.2h22.64v3.37l-16.47,21h16.47Z"/><path d="M556.83,298.74a13.2,13.2,0,0,1-5.39-5.15,16.11,16.11,0,0,1-2-8.29,15.91,15.91,0,0,1,1.79-7.67,12.93,12.93,0,0,1,11.58-6.95,12.53,12.53,0,0,1,6.35,1.56,10.47,10.47,0,0,1,4.17,4.35,13.62,13.62,0,0,1,1.45,6.37c0,.87,0,1.9-.15,3.11H554.19q.31,5,3.26,7.52a10.82,10.82,0,0,0,7.21,2.48,18.88,18.88,0,0,0,5-.67,15.17,15.17,0,0,0,4.46-2v4.51a14,14,0,0,1-4.33,1.87,22.09,22.09,0,0,1-5.52.67A15.93,15.93,0,0,1,556.83,298.74Zm13-16.81v-.11a6.29,6.29,0,0,0-2.05-4.84,7.36,7.36,0,0,0-5.2-1.89,7.59,7.59,0,0,0-5.11,1.84,9.28,9.28,0,0,0-2.93,5Z"/><path d="M583.39,300v-24.2l-4-.67V271.2h7.46q.47,3.21.78,8.6a12.94,12.94,0,0,1,3-6.58,7.66,7.66,0,0,1,5.93-2.54,8.23,8.23,0,0,1,2.49.37v4.82a13.85,13.85,0,0,0-2.49-.26,7.32,7.32,0,0,0-6.22,3.08q-2.28,3.07-2.28,8.94V300Z"/><path d="M626.11,298.82a11.2,11.2,0,0,1-3.86-4.61q-.15,2.75-.62,5.75h-3.89V259.8h4.67v16.89a11.42,11.42,0,0,1,4.17-4.43,11.26,11.26,0,0,1,5.93-1.58,11.64,11.64,0,0,1,6.25,1.79,12.63,12.63,0,0,1,4.58,5.16,17.16,17.16,0,0,1,1.71,7.87,17.36,17.36,0,0,1-1.73,8,12.72,12.72,0,0,1-4.72,5.21,12.56,12.56,0,0,1-6.61,1.81A10.24,10.24,0,0,1,626.11,298.82Zm11.79-5.67a13.53,13.53,0,0,0,.08-15.24,7.63,7.63,0,0,0-6.3-2.87,8.69,8.69,0,0,0-8.13,5.07,12.23,12.23,0,0,0-1.14,5.34,11.77,11.77,0,0,0,1.22,5.39,9.62,9.62,0,0,0,3.34,3.84,8.3,8.3,0,0,0,4.66,1.39A7.69,7.69,0,0,0,637.9,293.15Z"/><path d="M657.51,298.74a13.2,13.2,0,0,1-5.39-5.15,16.11,16.11,0,0,1-2-8.29,15.91,15.91,0,0,1,1.79-7.67,12.93,12.93,0,0,1,11.58-6.95,12.53,12.53,0,0,1,6.35,1.56,10.41,10.41,0,0,1,4.17,4.35,13.62,13.62,0,0,1,1.45,6.37c0,.87-.05,1.9-.15,3.11H654.87q.32,5,3.27,7.52a10.79,10.79,0,0,0,7.2,2.48,18.82,18.82,0,0,0,5-.67,15.17,15.17,0,0,0,4.46-2v4.51a14,14,0,0,1-4.33,1.87,22.09,22.09,0,0,1-5.52.67A15.93,15.93,0,0,1,657.51,298.74Zm13-16.81v-.11a6.29,6.29,0,0,0-2-4.84,7.36,7.36,0,0,0-5.2-1.89,7.59,7.59,0,0,0-5.11,1.84,9.28,9.28,0,0,0-2.93,5Z"/><path d="M684.07,300V275.71l-4-.62V271.2h7.56a55.32,55.32,0,0,1,.83,6.58,9.53,9.53,0,0,1,3.48-5.21,9.77,9.77,0,0,1,6-1.89,8.64,8.64,0,0,1,5.88,2,9.9,9.9,0,0,1,3.08,5.19,9.53,9.53,0,0,1,3.52-5.29,9.92,9.92,0,0,1,6.07-1.92,8.81,8.81,0,0,1,5.13,1.48,9.18,9.18,0,0,1,3.18,3.83,12.18,12.18,0,0,1,1.07,5.06V300h-4.67V282.19a7.49,7.49,0,0,0-1.6-5.13,5.67,5.67,0,0,0-4.46-1.82,7.34,7.34,0,0,0-5.65,2.36q-2.18,2.36-2.17,6.87V300h-4.67V282a7.22,7.22,0,0,0-1.6-5,5.71,5.71,0,0,0-4.46-1.79,7.34,7.34,0,0,0-5.65,2.36q-2.17,2.36-2.18,6.87V300Z"/><path d="M748.22,300V275.61l-5.75-.52V271.2h5.75v-2.9a9.25,9.25,0,0,1,2.33-6.48q2.34-2.54,6.79-2.54a24.71,24.71,0,0,1,3.32.24,19.51,19.51,0,0,1,3.11.64v4.46a21.71,21.71,0,0,0-5.81-.88,5.61,5.61,0,0,0-3.86,1.11,4.26,4.26,0,0,0-1.22,3.29v3.06h10.89v4.41H752.88V300Z"/><path d="M774,298.74a13.14,13.14,0,0,1-5.39-5.15,17.68,17.68,0,0,1-.23-16A12.9,12.9,0,0,1,780,270.68a12.56,12.56,0,0,1,6.35,1.56,10.47,10.47,0,0,1,4.17,4.35,13.62,13.62,0,0,1,1.45,6.37c0,.87,0,1.9-.16,3.11H771.36c.21,3.35,1.29,5.86,3.26,7.52a10.8,10.8,0,0,0,7.21,2.48,18.94,18.94,0,0,0,5-.67,15.28,15.28,0,0,0,4.46-2v4.51a14,14,0,0,1-4.33,1.87,22.09,22.09,0,0,1-5.52.67A15.93,15.93,0,0,1,774,298.74Zm13-16.81v-.11a6.32,6.32,0,0,0-2-4.84,7.39,7.39,0,0,0-5.21-1.89,7.56,7.56,0,0,0-5.1,1.84,9.22,9.22,0,0,0-2.93,5Z"/><path d="M799.11,264.78a3.21,3.21,0,0,1,0-4.54,3.15,3.15,0,0,1,4.53,0,3.2,3.2,0,0,1,0,4.54,3.13,3.13,0,0,1-2.28.93A3.1,3.1,0,0,1,799.11,264.78Zm1.5,33.89a7.11,7.11,0,0,1-1.61-4.88V271.2h4.67v22.08c0,2,.91,3,2.74,3a7.83,7.83,0,0,0,2.28-.36v3.78a7.72,7.72,0,0,1-3.52.78A5.8,5.8,0,0,1,800.61,298.67Z"/><path d="M819.86,298.07c-1.8-1.61-2.7-4.15-2.7-7.64V275.35l-5.7-.62V271.2c2.42,0,4.15-.52,5.19-1.58s1.55-2.86,1.55-5.41h3.63v7h10.31v4.41H821.83v14.66q0,5.81,5.49,5.8a14.73,14.73,0,0,0,4.82-.67v3.89a11.92,11.92,0,0,1-5.55,1.19A9.7,9.7,0,0,1,819.86,298.07Z"/><path d="M843.15,298.72a12.2,12.2,0,0,1-4.92-5.11,16.63,16.63,0,0,1-1.76-7.9,16.21,16.21,0,0,1,2-8.26,12.79,12.79,0,0,1,5.19-5.08,14.55,14.55,0,0,1,6.84-1.69,15,15,0,0,1,6.89,1.61,12.31,12.31,0,0,1,5.1,4.95,17.88,17.88,0,0,1,0,16.14,13.45,13.45,0,0,1-5.07,5.26,13.79,13.79,0,0,1-7,1.84A14.71,14.71,0,0,1,843.15,298.72Zm11.94-3.91a8.88,8.88,0,0,0,3.32-3.66,12.15,12.15,0,0,0,1.22-5.59,11.84,11.84,0,0,0-1.3-5.76,8.62,8.62,0,0,0-3.42-3.55,9.37,9.37,0,0,0-4.56-1.16,8.8,8.8,0,0,0-4.53,1.22,8.69,8.69,0,0,0-3.34,3.55,11.71,11.71,0,0,0-1.25,5.59,12.71,12.71,0,0,0,1.17,5.62,8.5,8.5,0,0,0,8,5A9,9,0,0,0,855.09,294.81Z"/></g></g></svg>